# xmcd
#
# Track frame offsets:
#	150
#	14177
#	26287
#	39621
#	51461
#	63648
#	72816
#	84303
#	95991
#	108183
#	121543
#	132112
#	142228
#	154088
#	166585
#
# Disc length: 2382 seconds
#
# Revision: 0
# Processed by: cddbd v1.5.2PL0 Copyright (c) Steve Scherf et al.
# Submitted via: EasyCDDAExtractor 12.0.1.1
#
DISCID=cb094c0f
DTITLE=Various Artist - Country Jukebox Disc 3
DYEAR=2013
DGENRE=Country
TTITLE0=Ricky Scaggs - Another Song, Another Drink
TTITLE1=Willie Nelson - Shelter Of Your Arms
TTITLE2=Patsy Cline - A Church, A Courtroom And The Goodbye
TTITLE3=Stonewall Jackson - I Can't Get Enough Of You
TTITLE4=Billie Jo Spears - Sunshine
TTITLE5=George Jones - Love Bug
TTITLE6=Ned Miller - Do What You Do Do Well
TTITLE7=Johny Paycheck - Don't Tell My Wife
TTITLE8=George Jones - If My Heart Had Windows
TTITLE9=Kitty Wells - Makin' Believe
TTITLE10=The Teddy Bears - To Know Him
TTITLE11=Billie Jo Spears - It Makes No Difference
TTITLE12=Wanda Jackson - Right Or Wrong
TTITLE13=Roy Druske - Three Hearts In A Triangle
TTITLE14=Jack Scott - Burning Bridges
EXTD=
EXTT0=
EXTT1=
EXTT2=
EXTT3=
EXTT4=
EXTT5=
EXTT6=
EXTT7=
EXTT8=
EXTT9=
EXTT10=
EXTT11=
EXTT12=
EXTT13=
EXTT14=
PLAYORDER=
